# xmcd
# Copyright (C) 1995-1998 Ti Kan
#
# Track frame offsets:
#       150
#       13276
#       28238
#       48865
#       60866
#       76023
#       89126
#       100701
#       112545
#       127583
#       138631
#       150527
#
# Disc length: 2191 seconds
#
# Revision: 0
# Processed by: cddbd v1.5.2PL0 Copyright (c) Steve Scherf et al.
# Submitted via: CD-Import v1.0
#
DISCID=85088d0c
DTITLE=Neviss - The Good Men
DYEAR=2010
DGENRE=
TTITLE0=It Runs In The Family
TTITLE1=This Is The End
TTITLE2=Now Rest
TTITLE3=A Cat and A Grandson
TTITLE4=Saint Brokenheart
TTITLE5=The Good Men
TTITLE6=On The Chairlift Of Wonders
TTITLE7=Never Wanted To Go To Jena
TTITLE8=The Opposite Of Love
TTITLE9=Merry Christmas
TTITLE10=Everyone Is Dying
TTITLE11=The Strangers
EXTD=
EXTT0=
EXTT1=
EXTT2=
EXTT3=
EXTT4=
EXTT5=
EXTT6=
EXTT7=
EXTT8=
EXTT9=
EXTT10=
EXTT11=
PLAYORDER=
